<?xml version="1.0" standalone="no"?>
<!DOCTYPE svg SYSTEM "svg-19990812.dtd">
<!-- Generator: SIGNLAB -->
<svg viewbox="0 0 408 94" width="408" height="94"  xmlns="http://www.w3.org/2000/svg" xmlns:xlink="http://www.w3.org/1999/xlink">
<g>
<title>Layer 1</title>
<g transform="matrix(1 0 0 -1 -97 662)"
style="text-rendering:optimizeLegibility;
shape-rendering:default;
image-rendering:optimizeQuality">
<desc>Untitled</desc>
<path style="fill:#FF004D;stroke:#FF004D;fill-rule: evenodd;stroke-linejoin:round;stroke-width:0.000001"
d="M259.488816 796.822243 C270.173973 796.822243 280.859130 796.822243 291.544287 796.822243 
L291.544287 770.175996 
C293.770813 770.175996 295.997339 770.175996 298.223866 770.175996 
L298.223866 825.549300 
C295.997339 825.549300 293.770813 825.549300 291.544287 825.549300 
L291.544287 799.918148 
C280.859130 799.918148 270.173973 799.918148 259.488816 799.918148 
L259.488816 825.549300 
C257.231621 825.549300 254.974426 825.549300 252.717230 825.549300 
C252.717230 807.119729 252.717230 788.690158 252.717230 770.260587 
C254.974426 770.260587 257.231621 770.260587 259.488816 770.260587 
L259.488816 796.822243 
z"/>
<path style="fill:#FF004D;stroke:#FF004D;fill-rule: evenodd;stroke-linejoin:round;stroke-width:0.000001"
d="M319.862444 787.263431 C327.741908 787.263431 335.621371 787.263431 343.500835 787.263431 
L351.045429 770.175996 
L357.828403 770.175996 
L333.085937 826.581311 
L332.853326 826.581034 
L308.294939 770.175996 
L312.501864 770.175996 
L319.862444 787.263431 
M321.025173 789.936379 
L331.956273 815.061454 
L342.523003 789.936379 
C335.357059 789.936379 328.191116 789.936379 321.025173 789.936379 
z"/>
<path style="fill:#FF004D;stroke:#FF004D;fill-rule: evenodd;stroke-linejoin:round;stroke-width:0.000001"
d="M373.510075 770.175996 
L373.510075 822.453396 
C376.858040 822.453396 380.206005 822.453396 383.553971 822.453396 
C385.580338 822.453396 387.611154 822.282730 389.239225 821.994084 
C392.436839 821.427168 394.196954 820.485193 395.568298 819.499423 
C397.618653 818.025556 398.801090 816.427909 399.431691 813.647657 
C399.911032 811.534296 399.854494 808.749523 399.172863 806.670131 
C398.401517 804.317054 397.081177 802.771920 395.107547 801.479836 
C394.099394 800.819824 392.881122 800.233679 391.302430 799.818529 
C389.723737 799.403378 387.784625 799.156827 385.852509 799.156827 
C382.921775 799.156827 379.991040 799.156827 377.060306 799.156827 
L376.944322 798.954325 
L398.423792 770.175996 
C401.123731 770.175996 403.823669 770.175996 406.523608 770.175996 
L406.637034 770.378338 
L386.286378 796.639949 
C386.504225 796.616952 386.730223 796.593738 387.346716 796.577817 
C387.649809 796.569990 388.043728 796.566325 388.437579 796.568430 
C390.795723 796.573334 393.158955 796.823938 395.123965 797.254506 
C399.025149 798.109322 401.418285 799.575585 403.169076 801.159295 
C405.787748 803.528063 407.116586 806.331235 407.090138 810.196912 
C407.072506 812.774043 406.348880 815.470369 405.083082 817.482813 
C403.827460 819.479080 402.138874 821.166789 399.115792 822.715015 
C397.612507 823.484900 395.759695 824.210402 393.306946 824.726280 
C390.854197 825.242159 387.801511 825.549300 384.757434 825.549300 
C378.751119 825.549300 372.744804 825.549300 366.738489 825.549300 
L366.738489 770.175996 
C368.995685 770.175996 371.252880 770.175996 373.510075 770.175996 
z"/>
<path style="fill:#FF004D;stroke:#FF004D;fill-rule: evenodd;stroke-linejoin:round;stroke-width:0.000001"
d="M421.429271 770.175996 C427.803863 770.175996 434.178455 770.175996 440.553048 770.175996 
C443.850430 770.175996 447.153794 770.577511 450.003038 771.275862 
C455.744421 772.683078 459.539244 775.063748 462.644369 778.202897 
C464.208532 779.784198 465.618008 781.626220 466.753881 783.570786 
C467.889755 785.515353 468.752026 787.562465 469.340487 789.814003 
C470.715551 795.075191 470.413608 801.421496 468.771298 806.389527 
C467.831819 809.231478 466.477759 811.625261 464.777086 813.764093 
C463.076414 815.902926 461.029129 817.786807 458.415024 819.494585 
C455.800918 821.202364 452.619992 822.734039 448.471967 823.819602 
C444.323943 824.905164 439.208822 825.549300 434.112772 825.549300 
C429.884938 825.549300 425.657105 825.549300 421.429271 825.549300 
L421.429271 770.175996 
M428.200857 822.453396 C430.567134 822.453396 432.933412 822.453396 435.299689 822.453396 
C438.566819 822.453396 441.841782 822.105075 444.550110 821.512369 
C449.885248 820.344797 453.207617 818.366717 455.903497 815.900063 
C458.591134 813.440952 460.650902 810.472318 461.862704 805.874411 
C463.080902 801.252231 463.097885 794.698895 461.825728 789.866930 
C460.577797 785.126983 458.431088 782.053876 455.743305 779.580411 
C453.061963 777.112874 449.810398 775.231167 444.939516 774.140405 
C442.479811 773.589590 439.576793 773.271901 436.679680 773.271901 
L428.200857 773.271901 
L428.200857 822.453396 
z"/>
<path style="fill:#FF004D;stroke:#FF004D;fill-rule: evenodd;stroke-linejoin:round;stroke-width:0.000001"
d="M490.806856 773.271901 
L490.806856 796.991426 
C499.363529 796.991426 507.920203 796.991426 516.476877 796.991426 
C516.476877 797.967000 516.476877 798.942574 516.476877 799.918148 
L490.806856 799.918148 
L490.806856 822.453396 
L518.133007 822.453396 
C518.133007 823.485364 518.133007 824.517332 518.133007 825.549300 
C506.767095 825.549300 495.401182 825.549300 484.035270 825.549300 
C484.035270 807.091532 484.035270 788.633764 484.035270 770.175996 
C495.707873 770.175996 507.380476 770.175996 519.053079 770.175996 
L519.053079 773.271901 
C509.637671 773.271901 500.222264 773.271901 490.806856 773.271901 
z"/>
<path style="fill:#FF004D;stroke:#FF004D;fill-rule: evenodd;stroke-linejoin:round;stroke-width:0.000001"
d="M539.795150 770.175996 
L539.795150 822.453396 
C543.143115 822.453396 546.491080 822.453396 549.839045 822.453396 
C551.865412 822.453396 553.896229 822.282730 555.524300 821.994084 
C558.721913 821.427168 560.482029 820.485193 561.853372 819.499423 
C563.903728 818.025556 565.086164 816.427909 565.716766 813.647657 
C566.196107 811.534296 566.139569 808.749523 565.457938 806.670131 
C564.686592 804.317054 563.366251 802.771920 561.392622 801.479836 
C560.384468 800.819824 559.166197 800.233679 557.587505 799.818529 
C556.008812 799.403378 554.069700 799.156827 552.137584 799.156827 
C549.206849 799.156827 546.276115 799.156827 543.345380 799.156827 
L543.229397 798.954325 
L564.708867 770.175996 
C567.408805 770.175996 570.108744 770.175996 572.808683 770.175996 
L572.922109 770.378338 
L552.571453 796.639949 
C552.789300 796.616952 553.015298 796.593738 553.631791 796.577817 
C553.934884 796.569990 554.328802 796.566325 554.722654 796.568430 
C557.080797 796.573334 559.444029 796.823938 561.409040 797.254506 
C565.310224 798.109322 567.703359 799.575585 569.454151 801.159295 
C572.072823 803.528063 573.401660 806.331235 573.375213 810.196912 
C573.357581 812.774043 572.633954 815.470369 571.368157 817.482813 
C570.112534 819.479080 568.423949 821.166789 565.400866 822.715015 
C563.897582 823.484900 562.044770 824.210402 559.592021 824.726280 
C557.139271 825.242159 554.086585 825.549300 551.042509 825.549300 
C545.036194 825.549300 539.029879 825.549300 533.023564 825.549300 
C533.023564 807.091532 533.023564 788.633764 533.023564 770.175996 
C535.280759 770.175996 537.537955 770.175996 539.795150 770.175996 
z"/>
<path style="fill:#7F7F7F;stroke:#7F7F7F;fill-rule: evenodd;stroke-linejoin:round;stroke-width:0.000001"
d="M259.159156 709.064378 C261.229682 709.064378 263.300208 709.064378 265.370734 709.064378 
C265.370734 710.516841 265.370734 711.969305 265.370734 713.421768 
L259.581475 713.421768 
C258.299015 713.421768 257.318677 713.602882 256.796218 713.809925 
C255.817446 714.197799 255.211039 714.800993 254.833910 715.528560 
C254.674972 715.835187 254.467532 716.246720 254.348557 717.544934 
C254.291538 718.167106 254.269807 718.979212 254.295809 719.788583 
C254.295809 724.880550 254.295809 729.972517 254.295809 735.064484 
C252.648620 735.064484 251.001431 735.064484 249.354242 735.064484 
C249.354242 729.911868 249.354242 724.759251 249.354242 719.606634 
C249.354242 718.432101 249.398514 717.253958 249.514585 716.365449 
C249.737827 714.656561 250.090270 713.882482 250.599721 713.007294 
C251.367457 711.688396 252.435367 710.683967 253.352710 710.141154 
C254.038719 709.735227 254.676397 709.400025 256.203519 709.199135 
C257.003416 709.093910 258.083620 709.040024 259.159156 709.064378 
z"/>
<path style="fill:#7F7F7F;stroke:#7F7F7F;fill-rule: evenodd;stroke-linejoin:round;stroke-width:0.000001"
d="M275.313845 735.064484 
L265.447551 709.064378 
L270.685812 709.064378 
L272.758313 715.242849 
C276.114227 715.242849 279.470141 715.242849 282.826054 715.242849 
L284.963321 709.064378 
L290.460550 709.064378 
L280.529346 735.064484 
C278.790846 735.064484 277.052345 735.064484 275.313845 735.064484 
M277.727772 729.788929 
L281.219002 719.925422 
C278.934221 719.925422 276.649440 719.925422 274.364660 719.925422 
L277.727772 729.788929 
z"/>
<path style="fill:#7F7F7F;stroke:#7F7F7F;fill-rule: evenodd;stroke-linejoin:round;stroke-width:0.000001"
d="M312.460715 730.381911 C312.460715 731.942769 312.460715 733.503627 312.460715 735.064484 
C308.188016 735.064484 303.915317 735.064484 299.642618 735.064484 
C298.675790 735.064484 297.706343 734.982731 296.938191 734.840993 
C294.763945 734.439804 293.949234 733.756042 293.179856 732.898272 
C292.452314 732.087144 291.910464 731.200687 291.616353 729.300536 
C291.411072 727.974283 291.420438 726.214387 291.604485 725.036868 
C291.878726 723.282296 292.371933 722.451519 293.072139 721.672500 
C293.778215 720.886951 294.545269 720.216192 296.645127 719.828141 
C297.377674 719.692767 298.300896 719.614750 299.221640 719.614750 
L304.985998 719.614750 
C306.854585 719.614750 307.389362 719.181406 307.691445 718.900316 
C308.031226 718.584147 308.259773 718.285591 308.376519 717.418825 
C308.480936 716.643588 308.399091 715.902025 308.290924 715.520885 
C308.059019 714.703740 307.896045 714.387852 306.811371 714.013593 
C306.425075 713.880304 305.658837 713.746951 304.662250 713.746951 
C300.573623 713.746951 296.484996 713.746951 292.396369 713.746951 
C292.396369 712.186093 292.396369 710.625235 292.396369 709.064378 
C296.744630 709.064378 301.092890 709.064378 305.441151 709.064378 
C306.405267 709.064378 307.371937 709.146659 308.139304 709.288583 
C310.313436 709.690687 311.136819 710.379936 311.902071 711.232810 
C312.623269 712.036586 313.155500 712.918088 313.439758 714.747441 
C313.633922 715.996985 313.629466 717.721090 313.469892 718.895911 
C313.172192 721.087636 312.667211 721.794468 311.772718 722.628164 
C311.146814 723.211526 310.483465 723.747135 308.546963 724.056649 
C307.871675 724.164581 307.011529 724.225061 306.153423 724.225061 
L299.677177 724.225061 
C298.096954 724.225061 297.426287 724.792238 297.100778 725.249018 
C296.826723 725.633595 296.625814 726.157482 296.625739 727.037752 
C296.625598 728.682526 297.013622 729.026605 297.352002 729.402413 
C297.676393 729.762685 298.028107 730.087793 299.072795 730.277782 
C299.435720 730.343784 299.897013 730.381911 300.357026 730.381911 
C304.391589 730.381911 308.426152 730.381911 312.460715 730.381911 
z"/>
<path style="fill:#7F7F7F;stroke:#7F7F7F;fill-rule: evenodd;stroke-linejoin:round;stroke-width:0.000001"
d="M327.538826 730.490305 C330.223975 730.490305 332.909124 730.490305 335.594272 730.490305 
C335.594272 732.015032 335.594272 733.539758 335.594272 735.064484 
C332.875876 735.064484 330.157480 735.064484 327.439084 735.064484 
C325.087123 735.064484 323.011587 734.549258 321.709062 733.864308 
C319.723117 732.819973 318.681354 731.651908 317.702826 729.312251 
C317.365851 728.506545 317.048937 727.528694 316.825714 726.213681 
C316.602490 724.898668 316.472955 723.246493 316.469178 721.719302 
C316.465401 720.192110 316.587380 718.789903 316.794121 717.638079 
C317.201352 715.369259 317.883724 713.993644 318.702069 712.849772 
C319.523322 711.701836 320.465938 710.907487 321.320001 710.376872 
C322.221799 709.816600 322.977157 709.450582 324.491452 709.225684 
C325.275172 709.109288 326.294426 709.064378 327.310061 709.064378 
C330.071465 709.064378 332.832868 709.064378 335.594272 709.064378 
C335.594272 710.589104 335.594272 712.113830 335.594272 713.638557 
C332.908994 713.638557 330.223717 713.638557 327.538439 713.638557 
C326.920881 713.638557 326.301642 713.689753 325.811153 713.779153 
C323.980068 714.112902 323.489156 714.698237 322.915057 715.665188 
C322.628782 716.147359 322.349100 716.746529 322.174485 717.887842 
C322.085378 718.470260 322.030487 719.205636 322.028114 719.939933 
L335.594272 719.939933 
C335.594272 721.464659 335.594272 722.989386 335.594272 724.514112 
C331.083730 724.514112 326.573188 724.514112 322.062646 724.514112 
C322.129380 726.040332 322.494156 727.340145 322.913422 728.105702 
C323.557180 729.281170 324.206765 729.902283 325.727940 730.282631 
C326.250691 730.413337 326.895893 730.490305 327.538826 730.490305 
z"/>
<path style="fill:#7F7F7F;stroke:#7F7F7F;fill-rule: evenodd;stroke-linejoin:round;stroke-width:0.000001"
d="M340.541694 735.064484 C340.541694 726.397782 340.541694 717.731080 340.541694 709.064378 
C342.188883 709.064378 343.836072 709.064378 345.483261 709.064378 
L345.483261 719.253436 
C347.390960 719.253436 349.298659 719.253436 351.206358 719.253436 
L356.322844 709.064378 
C358.147984 709.064378 359.973123 709.064378 361.798262 709.064378 
L361.842345 709.151002 
L356.084990 719.917177 
C357.834051 720.341617 359.041853 721.338088 359.824578 722.809420 
C360.647401 724.356128 360.929024 727.419419 360.616753 729.351533 
C360.222407 731.791472 359.500226 732.708033 358.243340 733.629999 
C357.600845 734.101290 356.799085 734.560690 355.296655 734.839964 
C354.531984 734.982102 353.572248 735.064484 352.614997 735.064484 
L340.541694 735.064484 
M351.447532 730.381911 C352.666810 730.381911 353.673210 730.224521 354.131793 730.046957 
C355.101266 729.671577 355.312635 729.395378 355.581750 728.546232 
C355.670382 728.266568 355.759097 727.803514 355.761491 727.171990 
C355.768114 725.424187 355.457661 725.301298 355.091489 724.894204 
C354.776597 724.544120 354.593781 724.190412 353.025123 723.983973 
C352.593547 723.927176 352.019802 723.899878 351.447543 723.899878 
L345.483261 723.899878 
C345.483261 726.060556 345.483261 728.221233 345.483261 730.381911 
C347.471352 730.381911 349.459442 730.381911 351.447532 730.381911 
z"/>
<path style="fill:#7F7F7F;stroke:#7F7F7F;fill-rule: evenodd;stroke-linejoin:round;stroke-width:0.000001"
d="M372.206432 735.064484 
L362.340139 709.064378 
L367.578400 709.064378 
L369.650901 715.242849 
C373.006815 715.242849 376.362728 715.242849 379.718642 715.242849 
L381.855909 709.064378 
L387.353138 709.064378 
L377.421934 735.064484 
C375.683433 735.064484 373.944933 735.064484 372.206432 735.064484 
M374.620359 729.788929 
L378.111590 719.925422 
C375.826809 719.925422 373.542028 719.925422 371.257247 719.925422 
L374.620359 729.788929 
z"/>
<path style="fill:#7F7F7F;stroke:#7F7F7F;fill-rule: evenodd;stroke-linejoin:round;stroke-width:0.000001"
d="M389.483254 721.017259 C389.483254 717.032965 389.483254 713.048671 389.483254 709.064378 
C391.130443 709.064378 392.777632 709.064378 394.424821 709.064378 
L394.424821 719.687013 
L408.414201 719.687013 
C408.414201 721.199695 408.414201 722.712378 408.414201 724.225061 
L394.427428 724.225061 
C394.435524 724.877445 394.491754 725.530171 394.580444 726.064131 
C394.911066 728.054667 395.405871 728.703010 396.448346 729.458493 
C396.924856 729.803821 397.510552 730.132299 398.591215 730.330693 
C399.141945 730.431799 399.831990 730.490305 400.520295 730.490305 
C403.151597 730.490305 405.782899 730.490305 408.414201 730.490305 
C408.414201 732.015032 408.414201 733.539758 408.414201 735.064484 
C405.922569 735.064484 403.430937 735.064484 400.939305 735.064484 
C399.526887 735.064484 398.110000 734.952274 397.008116 734.752719 
C394.865339 734.364655 393.801927 733.728585 392.939825 733.087925 
C392.093529 732.459011 391.527287 731.799228 391.030003 730.953082 
C390.546722 730.130761 389.996133 729.055696 389.666881 726.088814 
C389.508772 724.664103 389.436341 722.837667 389.483254 721.017259 
z"/>
<path style="fill:#7F7F7F;stroke:#7F7F7F;fill-rule: evenodd;stroke-linejoin:round;stroke-width:0.000001"
d="M425.143470 709.064378 C426.086938 709.064378 427.032894 709.144690 427.782659 709.282706 
C429.902532 709.672930 430.700263 710.346171 431.422632 711.150181 
C432.103601 711.908112 432.577437 712.737304 432.839120 714.338171 
C433.011495 715.392694 433.037310 716.975407 432.739551 718.225494 
C432.458742 719.404417 432.001223 720.215103 431.088064 721.018218 
C430.642792 721.409831 430.072999 721.780391 429.465692 722.066188 
C430.726788 722.782566 431.589596 723.706424 432.087154 724.617871 
C432.345272 725.090704 432.547485 725.593011 432.690891 726.208461 
C432.972347 727.416370 432.999121 729.158843 432.581092 730.600980 
C432.173180 732.008215 431.363651 733.087120 430.273596 733.867397 
C429.736758 734.261202 429.162744 734.628497 427.510656 734.881840 
C426.650653 735.013719 425.473224 735.064484 424.301228 735.064484 
L412.325372 735.064484 
C412.325372 726.397782 412.325372 717.731080 412.325372 709.064378 
C416.598072 709.064378 420.870771 709.064378 425.143470 709.064378 
M424.461442 713.710819 
L417.266940 713.710819 
C417.266940 715.726972 417.266940 717.743124 417.266940 719.759276 
C419.665102 719.759276 422.063264 719.759276 424.461427 719.759276 
C426.341330 719.759276 426.665811 719.273759 426.985150 718.917810 
C427.357817 718.502420 427.641950 717.909289 427.642329 716.718010 
C427.642830 715.139208 427.181631 714.627530 426.686312 714.264734 
C426.324414 713.999661 425.655221 713.710819 424.461442 713.710819 
M417.266940 730.345780 C419.643513 730.345780 422.020086 730.345780 424.396659 730.345780 
C426.291485 730.345780 426.615401 729.855603 426.933462 729.501334 
C427.303344 729.089345 427.577517 728.510830 427.577520 727.375730 
C427.577524 725.881537 427.131842 725.342226 426.618305 724.966019 
C426.251184 724.697074 425.577294 724.405718 424.396658 724.405718 
L417.266940 724.405718 
C417.266940 726.385738 417.266940 728.365759 417.266940 730.345780 
z"/>
<path style="fill:#7F7F7F;stroke:#7F7F7F;fill-rule: evenodd;stroke-linejoin:round;stroke-width:0.000001"
d="M447.110740 730.490305 C449.795888 730.490305 452.481037 730.490305 455.166186 730.490305 
C455.166186 732.015032 455.166186 733.539758 455.166186 735.064484 
C452.447790 735.064484 449.729394 735.064484 447.010998 735.064484 
C444.659037 735.064484 442.583501 734.549258 441.280976 733.864308 
C439.295030 732.819973 438.253267 731.651908 437.274739 729.312251 
C436.937765 728.506545 436.620851 727.528694 436.397627 726.213681 
C436.174403 724.898668 436.044869 723.246493 436.041091 721.719302 
C436.037314 720.192110 436.159294 718.789903 436.366035 717.638079 
C436.773265 715.369259 437.455637 713.993644 438.273983 712.849772 
C439.095235 711.701836 440.037852 710.907487 440.891914 710.376872 
C441.793712 709.816600 442.549070 709.450582 444.063366 709.225684 
C444.847085 709.109288 445.866339 709.064378 446.881974 709.064378 
C449.643378 709.064378 452.404782 709.064378 455.166186 709.064378 
C455.166186 710.589104 455.166186 712.113830 455.166186 713.638557 
C452.480908 713.638557 449.795630 713.638557 447.110352 713.638557 
C446.492794 713.638557 445.873556 713.689753 445.383067 713.779153 
C443.551982 714.112902 443.061070 714.698237 442.486970 715.665188 
C442.200695 716.147359 441.921014 716.746529 441.746399 717.887842 
C441.657292 718.470260 441.602400 719.205636 441.600027 719.939933 
L455.166186 719.939933 
C455.166186 721.464659 455.166186 722.989386 455.166186 724.514112 
C450.655644 724.514112 446.145101 724.514112 441.634559 724.514112 
C441.701294 726.040332 442.066069 727.340145 442.485336 728.105702 
C443.129093 729.281170 443.778678 729.902283 445.299854 730.282631 
C445.822605 730.413337 446.467806 730.490305 447.110740 730.490305 
z"/>
<path style="fill:#7F7F7F;stroke:#7F7F7F;fill-rule: evenodd;stroke-linejoin:round;stroke-width:0.000001"
d="M469.726178 730.490305 C472.411327 730.490305 475.096476 730.490305 477.781624 730.490305 
C477.781624 732.015032 477.781624 733.539758 477.781624 735.064484 
C475.063228 735.064484 472.344832 735.064484 469.626436 735.064484 
C467.274475 735.064484 465.198939 734.549258 463.896414 733.864308 
C461.910469 732.819973 460.868706 731.651908 459.890178 729.312251 
C459.553203 728.506545 459.236290 727.528694 459.013066 726.213681 
C458.789842 724.898668 458.660308 723.246493 458.656530 721.719302 
C458.652753 720.192110 458.774732 718.789903 458.981473 717.638079 
C459.388704 715.369259 460.071076 713.993644 460.889421 712.849772 
C461.710674 711.701836 462.653290 710.907487 463.507353 710.376872 
C464.409151 709.816600 465.164509 709.450582 466.678805 709.225684 
C467.462524 709.109288 468.481778 709.064378 469.497413 709.064378 
C472.258817 709.064378 475.020221 709.064378 477.781624 709.064378 
C477.781624 710.589104 477.781624 712.113830 477.781624 713.638557 
C475.096347 713.638557 472.411069 713.638557 469.725791 713.638557 
C469.108233 713.638557 468.488995 713.689753 467.998505 713.779153 
C466.167420 714.112902 465.676509 714.698237 465.102409 715.665188 
C464.816134 716.147359 464.536453 716.746529 464.361837 717.887842 
C464.272730 718.470260 464.217839 719.205636 464.215466 719.939933 
L477.781624 719.939933 
C477.781624 721.464659 477.781624 722.989386 477.781624 724.514112 
C473.271082 724.514112 468.760540 724.514112 464.249998 724.514112 
C464.316732 726.040332 464.681508 727.340145 465.100774 728.105702 
C465.744532 729.281170 466.394117 729.902283 467.915292 730.282631 
C468.438043 730.413337 469.083245 730.490305 469.726178 730.490305 
z"/>
<path style="fill:#7F7F7F;stroke:#7F7F7F;fill-rule: evenodd;stroke-linejoin:round;stroke-width:0.000001"
d="M491.983453 709.064378 C494.053979 709.064378 496.124505 709.064378 498.195031 709.064378 
C498.195031 710.516841 498.195031 711.969305 498.195031 713.421768 
L492.405771 713.421768 
C491.123312 713.421768 490.142974 713.602882 489.620515 713.809925 
C488.641743 714.197799 488.035335 714.800993 487.658207 715.528560 
C487.499269 715.835187 487.291829 716.246720 487.172854 717.544934 
C487.115835 718.167106 487.094104 718.979212 487.120105 719.788583 
L487.120105 735.064484 
C485.472916 735.064484 483.825727 735.064484 482.178538 735.064484 
C482.178538 729.911868 482.178538 724.759251 482.178538 719.606634 
C482.178538 718.432101 482.222810 717.253958 482.338882 716.365449 
C482.562124 714.656561 482.914567 713.882482 483.424018 713.007294 
C484.191754 711.688396 485.259663 710.683967 486.177007 710.141154 
C486.863015 709.735227 487.500694 709.400025 489.027816 709.199135 
C489.827713 709.093910 490.907916 709.040024 491.983453 709.064378 
z"/>
<path style="fill:#7F7F7F;stroke:#7F7F7F;fill-rule: evenodd;stroke-linejoin:round;stroke-width:0.000001"
d="M501.458546 735.064484 C501.458546 726.397782 501.458546 717.731080 501.458546 709.064378 
C505.061903 709.064378 508.665260 709.064378 512.268617 709.064378 
C513.284222 709.064378 514.303450 709.109112 515.087070 709.225404 
C516.601152 709.450099 517.356072 709.816110 518.258101 710.376590 
C519.534195 711.169497 520.978763 712.489285 521.961141 714.814852 
C522.285748 715.583287 522.577503 716.485745 522.784380 717.637992 
C522.991258 718.790239 523.113257 720.192276 523.109478 721.719579 
C523.105699 723.246882 522.976142 724.899453 522.753284 726.213458 
C522.317441 728.783259 521.587815 730.174031 520.796439 731.299214 
C519.639643 732.943955 518.382056 734.085051 515.491180 734.723680 
C514.516314 734.939040 513.326346 735.064484 512.139595 735.064484 
L501.458546 735.064484 
M512.040344 730.490305 C512.607052 730.490305 513.174980 730.448497 513.628167 730.374746 
C515.272061 730.107220 515.742956 729.680856 516.380068 728.825178 
C516.670240 728.435460 516.920041 727.997256 517.183649 727.142812 
C517.320713 726.698542 517.464783 726.123223 517.563529 725.254991 
C517.764446 723.488398 517.754452 720.659758 517.582228 719.025143 
C517.343615 716.760395 516.954679 716.166302 516.545485 715.529469 
C516.053743 714.764167 515.595024 714.349097 514.555606 713.984952 
C514.285195 713.890217 513.962751 713.801152 513.534734 713.738040 
C513.106717 713.674928 512.573127 713.638557 512.040420 713.638557 
C510.160318 713.638557 508.280216 713.638557 506.400113 713.638557 
C506.400113 719.255806 506.400113 724.873056 506.400113 730.490305 
C508.280190 730.490305 510.160267 730.490305 512.040344 730.490305 
z"/>
<path style="fill:#7F7F7F;stroke:#7F7F7F;fill-rule: evenodd;stroke-linejoin:round;stroke-width:0.000001"
d="M532.350493 709.064378 C532.350493 717.731080 532.350493 726.397782 532.350493 735.064484 
C530.627744 735.064484 528.904995 735.064484 527.182246 735.064484 
C527.182246 726.397782 527.182246 717.731080 527.182246 709.064378 
C528.904995 709.064378 530.627744 709.064378 532.350493 709.064378 
z"/>
<path style="fill:#7F7F7F;stroke:#7F7F7F;fill-rule: evenodd;stroke-linejoin:round;stroke-width:0.000001"
d="M537.848423 735.064484 C537.848423 726.397782 537.848423 717.731080 537.848423 709.064378 
C539.538901 709.064378 541.229379 709.064378 542.919857 709.064378 
L542.694134 728.600949 
L552.658204 709.064378 
C554.560845 709.064378 556.463487 709.064378 558.366128 709.064378 
C558.366128 717.731080 558.366128 726.397782 558.366128 735.064484 
C556.686438 735.064484 555.006749 735.064484 553.327059 735.064484 
L553.552732 716.503473 
L544.074463 735.064484 
L537.848423 735.064484 
z"/>
<path style="fill:#7F7F7F;stroke:#7F7F7F;fill-rule: evenodd;stroke-linejoin:round;stroke-width:0.000001"
d="M572.218826 719.867670 
L578.760157 719.867670 
C578.760157 717.851518 578.760157 715.835366 578.760157 713.819214 
C576.934085 713.819214 575.108013 713.819214 573.281941 713.819214 
C572.821006 713.819214 572.359459 713.859184 571.971471 713.926946 
C570.468410 714.189456 569.832489 714.725864 569.205311 715.568317 
C568.711143 716.232105 568.234147 716.954864 567.954677 719.135610 
C567.856785 719.899471 567.799070 720.873552 567.801047 721.903650 
C567.803025 722.933747 567.864697 724.019860 567.970872 724.866648 
C568.267505 727.232415 568.780212 728.034871 569.320802 728.761425 
C569.989125 729.659651 570.652663 730.172990 572.068250 730.424395 
C572.432843 730.489146 572.857649 730.526437 573.281958 730.526437 
C576.798391 730.526437 580.314823 730.526437 583.831255 730.526437 
C583.831255 732.039119 583.831255 733.551802 583.831255 735.064484 
C580.314082 735.064484 576.796908 735.064484 573.279735 735.064484 
C570.936420 735.064484 568.867240 734.549795 567.563688 733.864115 
C565.575662 732.818395 564.525846 731.642095 563.544903 729.297594 
C563.207211 728.490495 562.890143 727.512090 562.666770 726.199663 
C562.443397 724.887237 562.313719 723.240790 562.309876 721.716458 
C562.306032 720.192127 562.428023 718.789911 562.634769 717.638083 
C563.041995 715.369348 563.724232 713.993541 564.542832 712.849920 
C565.366834 711.698751 566.303905 710.908170 567.150028 710.379384 
C568.049948 709.816977 568.795207 709.445290 570.350393 709.219556 
C571.158497 709.102261 572.221486 709.064378 573.280294 709.064378 
C576.797281 709.064378 580.314268 709.064378 583.831255 709.064378 
C583.831255 714.214289 583.831255 719.364200 583.831255 724.514112 
C579.960446 724.514112 576.089636 724.514112 572.218826 724.514112 
C572.218826 722.965298 572.218826 721.416484 572.218826 719.867670 
z"/>
<path style="fill:#7F7F7F;stroke:#7F7F7F;fill-rule: evenodd;stroke-linejoin:round;stroke-width:0.000001"
d="M598.132185 730.490305 C600.817334 730.490305 603.502483 730.490305 606.187632 730.490305 
C606.187632 732.015032 606.187632 733.539758 606.187632 735.064484 
C603.469236 735.064484 600.750840 735.064484 598.032444 735.064484 
C595.680482 735.064484 593.604946 734.549258 592.302422 733.864308 
C590.316476 732.819973 589.274713 731.651908 588.296185 729.312251 
C587.959211 728.506545 587.642297 727.528694 587.419073 726.213681 
C587.195849 724.898668 587.066315 723.246493 587.062537 721.719302 
C587.058760 720.192110 587.180739 718.789903 587.387480 717.638079 
C587.794711 715.369259 588.477083 713.993644 589.295429 712.849772 
C590.116681 711.701836 591.059297 710.907487 591.913360 710.376872 
C592.815158 709.816600 593.570516 709.450582 595.084812 709.225684 
C595.868531 709.109288 596.887785 709.064378 597.903420 709.064378 
C600.664824 709.064378 603.426228 709.064378 606.187632 709.064378 
C606.187632 710.589104 606.187632 712.113830 606.187632 713.638557 
C603.502354 713.638557 600.817076 713.638557 598.131798 713.638557 
C597.514240 713.638557 596.895002 713.689753 596.404513 713.779153 
C594.573428 714.112902 594.082516 714.698237 593.508416 715.665188 
C593.222141 716.147359 592.942460 716.746529 592.767845 717.887842 
C592.678738 718.470260 592.623846 719.205636 592.621473 719.939933 
L606.187632 719.939933 
C606.187632 721.464659 606.187632 722.989386 606.187632 724.514112 
C601.677089 724.514112 597.166547 724.514112 592.656005 724.514112 
C592.722739 726.040332 593.087515 727.340145 593.506782 728.105702 
C594.150539 729.281170 594.800124 729.902283 596.321300 730.282631 
C596.844050 730.413337 597.489252 730.490305 598.132185 730.490305 
z"/>
<path style="fill:#7F7F7F;stroke:#7F7F7F;fill-rule: evenodd;stroke-linejoin:round;stroke-width:0.000001"
d="M611.135053 735.064484 C611.135053 726.397782 611.135053 717.731080 611.135053 709.064378 
C612.825532 709.064378 614.516010 709.064378 616.206488 709.064378 
L615.980764 728.600949 
L625.944834 709.064378 
C627.847476 709.064378 629.750117 709.064378 631.652759 709.064378 
C631.652759 717.731080 631.652759 726.397782 631.652759 735.064484 
C629.973069 735.064484 628.293379 735.064484 626.613690 735.064484 
L626.839363 716.503473 
L617.361094 735.064484 
L611.135053 735.064484 
z"/>
<path style="fill:#7F7F7F;stroke:#7F7F7F;fill-rule: evenodd;stroke-linejoin:round;stroke-width:0.000001"
d="M182.483272 824.697396 
L206.073066 824.697396 
L206.073066 765.607283 
L206.073066 710.217529 
L182.483272 710.217529 
L182.483272 763.525831 
L149.964629 763.525831 
L149.964629 783.993444 
L182.483272 783.993444 
L182.483272 824.697396 
M120.863200 824.697396 
L144.452995 824.697396 
L144.452995 765.607283 
L144.452995 731.494595 
L120.863200 731.494595 
L120.863200 790.584709 
L120.863200 824.697396 
z"/>
</g>
</g>
<defs>
</defs>
</svg>
